<?xml version="1.0" encoding="utf-8"?>
<svg version="1.1" xmlns:xlink="http://www.w3.org/1999/xlink" width="44px" height="44px" xmlns="http://www.w3.org/2000/svg">
  <g transform="matrix(1 0 0 1 -915 -1367 )">
    <path d="M 935.338255060592 1367.56431471183  C 935.891071154259 1367.52145910303  936.445400504944 1367.5  937 1367.5  C 948.874122121362 1367.5  958.5 1377.12587787864  958.5 1389  C 958.5 1400.87412212136  948.874122121362 1410.5  937 1410.5  C 925.125877878638 1410.5  915.5 1400.87412212136  915.5 1389  C 915.5 1385.39276899298  916.407558507749 1381.84627992349  918.13548845255 1378.68591936915  L 936.75 1389.43301270189  A 0.5 0.5 0 0 0 937.497470760719 1388.9497720971 L 935.338255060537 1367.56431471183  Z " fill-rule="nonzero" fill="#1890ff" stroke="none" />
    <path d="M 935.338255060592 1367.56431471183  C 935.891071154259 1367.52145910303  936.445400504944 1367.5  937 1367.5  C 948.874122121362 1367.5  958.5 1377.12587787864  958.5 1389  C 958.5 1400.87412212136  948.874122121362 1410.5  937 1410.5  C 925.125877878638 1410.5  915.5 1400.87412212136  915.5 1389  C 915.5 1385.39276899298  916.407558507749 1381.84627992349  918.13548845255 1378.68591936915  L 936.75 1389.43301270189  A 0.5 0.5 0 0 0 937.497470760719 1388.9497720971 L 935.338255060537 1367.56431471183  Z " stroke-width="1" stroke="#ffffff" fill="none" />
  </g>
</svg>