<?xml version="1.0" encoding="utf-8"?>
<svg version="1.1" xmlns:xlink="http://www.w3.org/1999/xlink" width="24px" height="24px" xmlns="http://www.w3.org/2000/svg">
  <g transform="matrix(1 0 0 1 -1205 -1276 )">
    <path d="M 1217 1276  C 1223.72 1276  1229 1281.28  1229 1288  C 1229 1294.72  1223.72 1300  1217 1300  C 1210.28 1300  1205 1294.72  1205 1288  C 1205 1281.28  1210.28 1276  1217 1276  Z " fill-rule="nonzero" fill="#ffffff" stroke="none" />
    <path d="M 1217 1276.5  C 1223.44 1276.5  1228.5 1281.56  1228.5 1288  C 1228.5 1294.44  1223.44 1299.5  1217 1299.5  C 1210.56 1299.5  1205.5 1294.44  1205.5 1288  C 1205.5 1281.56  1210.56 1276.5  1217 1276.5  Z " stroke-width="1" stroke="#cccccc" fill="none" />
  </g>
</svg>