<?xml version="1.0" encoding="utf-8"?>
<svg version="1.1" xmlns:xlink="http://www.w3.org/1999/xlink" width="25px" height="25px" xmlns="http://www.w3.org/2000/svg">
  <g transform="matrix(1 0 0 1 -924 -1376 )">
    <path d="M 936.5 1376  C 943.5 1376  949 1381.5  949 1388.5  C 949 1395.5  943.5 1401  936.5 1401  C 929.5 1401  924 1395.5  924 1388.5  C 924 1381.5  929.5 1376  936.5 1376  Z " fill-rule="nonzero" fill="#ffffff" stroke="none" />
    <path d="M 936.5 1376.5  C 943.22 1376.5  948.5 1381.78  948.5 1388.5  C 948.5 1395.22  943.22 1400.5  936.5 1400.5  C 929.78 1400.5  924.5 1395.22  924.5 1388.5  C 924.5 1381.78  929.78 1376.5  936.5 1376.5  Z " stroke-width="1" stroke="#ffffff" fill="none" />
  </g>
</svg>