<?xml version="1.0" encoding="utf-8"?>
<svg version="1.1" xmlns:xlink="http://www.w3.org/1999/xlink" width="40px" height="40px" xmlns="http://www.w3.org/2000/svg">
  <g transform="matrix(1 0 0 1 -375 -1481 )">
    <path d="M 376 1483  A 1 1 0 0 1 377 1482 L 413 1482  A 1 1 0 0 1 414 1483 L 414 1519  A 1 1 0 0 1 413 1520 L 377 1520  A 1 1 0 0 1 376 1519 L 376 1483  Z " fill-rule="nonzero" fill="#f2f2f2" stroke="none" />
    <path d="M 375.5 1483  A 1.5 1.5 0 0 1 377 1481.5 L 413 1481.5  A 1.5 1.5 0 0 1 414.5 1483 L 414.5 1519  A 1.5 1.5 0 0 1 413 1520.5 L 377 1520.5  A 1.5 1.5 0 0 1 375.5 1519 L 375.5 1483  Z " stroke-width="1" stroke="#000000" fill="none" stroke-opacity="0.0470588235294118" />
  </g>
</svg>