<?xml version="1.0" encoding="utf-8"?>
<svg version="1.1" xmlns:xlink="http://www.w3.org/1999/xlink" width="363px" height="184px" xmlns="http://www.w3.org/2000/svg">
  <g transform="matrix(1 0 0 1 -279 -290 )">
    <path d="M 280 292  A 1 1 0 0 1 281 291 L 640 291  A 1 1 0 0 1 641 292 L 641 472  A 1 1 0 0 1 640 473 L 281 473  A 1 1 0 0 1 280 472 L 280 292  Z " fill-rule="nonzero" fill="#ffffff" stroke="none" fill-opacity="0" />
    <path d="M 279.5 292  A 1.5 1.5 0 0 1 281 290.5 L 640 290.5  A 1.5 1.5 0 0 1 641.5 292 L 641.5 472  A 1.5 1.5 0 0 1 640 473.5 L 281 473.5  A 1.5 1.5 0 0 1 279.5 472 L 279.5 292  Z " stroke-width="1" stroke-dasharray="9,4" stroke="#e9e9e9" fill="none" stroke-dashoffset="0.5" />
  </g>
</svg>