<?xml version="1.0" encoding="utf-8"?>
<svg version="1.1" xmlns:xlink="http://www.w3.org/1999/xlink" width="1140px" height="47px" xmlns="http://www.w3.org/2000/svg">
  <g transform="matrix(1 0 0 1 -279 -917 )">
    <path d="M 280 921  A 3 3 0 0 1 283 918 L 1415 918  A 3 3 0 0 1 1418 921 L 1418 960  A 3 3 0 0 1 1415 963 L 283 963  A 3 3 0 0 1 280 960 L 280 921  Z " fill-rule="nonzero" fill="#ffffff" stroke="none" fill-opacity="0" />
    <path d="M 279.5 921  A 3.5 3.5 0 0 1 283 917.5 L 1415 917.5  A 3.5 3.5 0 0 1 1418.5 921 L 1418.5 960  A 3.5 3.5 0 0 1 1415 963.5 L 283 963.5  A 3.5 3.5 0 0 1 279.5 960 L 279.5 921  Z " stroke-width="1" stroke-dasharray="9,4" stroke="#d9d9d9" fill="none" stroke-dashoffset="0.5" />
  </g>
</svg>