<?xml version="1.0" encoding="utf-8"?>
<svg version="1.1" xmlns:xlink="http://www.w3.org/1999/xlink" width="14px" height="14px" xmlns="http://www.w3.org/2000/svg">
  <g transform="matrix(1 0 0 1 -698 -647 )">
    <path d="M 705 647  C 708.92 647  712 650.08  712 654  C 712 657.92  708.92 661  705 661  C 701.08 661  698 657.92  698 654  C 698 650.08  701.08 647  705 647  Z " fill-rule="nonzero" fill="#ffffff" stroke="none" fill-opacity="0" />
    <path d="M 705 647.5  C 708.64 647.5  711.5 650.36  711.5 654  C 711.5 657.64  708.64 660.5  705 660.5  C 701.36 660.5  698.5 657.64  698.5 654  C 698.5 650.36  701.36 647.5  705 647.5  Z " stroke-width="1" stroke="#d9d9d9" fill="none" />
  </g>
</svg>