<?xml version="1.0" encoding="utf-8"?>
<svg version="1.1" xmlns:xlink="http://www.w3.org/1999/xlink" width="64px" height="64px" xmlns="http://www.w3.org/2000/svg">
  <g transform="matrix(1 0 0 1 -448 -789 )">
    <path d="M 480 789  C 497.92 789  512 803.08  512 821  C 512 838.92  497.92 853  480 853  C 462.08 853  448 838.92  448 821  C 448 803.08  462.08 789  480 789  Z " fill-rule="nonzero" fill="#e9e9e9" stroke="none" />
    <path d="M 480 789.5  C 497.64 789.5  511.5 803.36  511.5 821  C 511.5 838.64  497.64 852.5  480 852.5  C 462.36 852.5  448.5 838.64  448.5 821  C 448.5 803.36  462.36 789.5  480 789.5  Z " stroke-width="1" stroke="#ffffff" fill="none" />
  </g>
</svg>