<?xml version="1.0" encoding="utf-8"?>
<svg version="1.1" xmlns:xlink="http://www.w3.org/1999/xlink" width="64px" height="64px" xmlns="http://www.w3.org/2000/svg">
  <g transform="matrix(1 0 0 1 -448 -789 )">
    <path d="M 477.333511537484 789.613062600621  C 478.22026999089 789.53772771924  479.109897522075 789.5  480 789.5  C 497.39696961967 789.5  511.5 803.60303038033  511.5 821  C 511.5 838.39696961967  497.39696961967 852.5  480 852.5  C 462.60303038033 852.5  448.5 838.39696961967  448.5 821  C 448.5 815.637355364267  449.869029054164 810.366338404969  452.473635776507 805.684996474949  L 479.75 821.433012701892  A 0.5 0.5 0 0 0 480.497470760719 820.949772097104 L 477.333511537502 789.613062600619  Z " fill-rule="nonzero" fill="#99d5fd" stroke="none" />
    <path d="M 477.333511537484 789.613062600621  C 478.22026999089 789.53772771924  479.109897522075 789.5  480 789.5  C 497.39696961967 789.5  511.5 803.60303038033  511.5 821  C 511.5 838.39696961967  497.39696961967 852.5  480 852.5  C 462.60303038033 852.5  448.5 838.39696961967  448.5 821  C 448.5 815.637355364267  449.869029054164 810.366338404969  452.473635776507 805.684996474949  L 479.75 821.433012701892  A 0.5 0.5 0 0 0 480.497470760719 820.949772097104 L 477.333511537502 789.613062600619  Z " stroke-width="1" stroke="#ffffff" fill="none" />
  </g>
</svg>