<?xml version="1.0" encoding="utf-8"?>
<svg version="1.1" xmlns:xlink="http://www.w3.org/1999/xlink" width="28px" height="28px" xmlns="http://www.w3.org/2000/svg">
  <defs>
    <filter x="660px" y="1330px" width="28px" height="28px" filterUnits="userSpaceOnUse" id="filter1">
      <feOffset dx="0" dy="1" in="SourceAlpha" result="shadowOffsetInner" />
      <feGaussianBlur stdDeviation="1" in="shadowOffsetInner" result="shadowGaussian" />
      <feComposite in2="shadowGaussian" operator="atop" in="SourceAlpha" result="shadowComposite" />
      <feColorMatrix type="matrix" values="0 0 0 0 0  0 0 0 0 0  0 0 0 0 0  0 0 0 0.349019607843137 0  " in="shadowComposite" />
    </filter>
    <g id="widget2">
      <path d="M 674 1331  C 680.72 1331  686 1336.28  686 1343  C 686 1349.72  680.72 1355  674 1355  C 667.28 1355  662 1349.72  662 1343  C 662 1336.28  667.28 1331  674 1331  Z " fill-rule="nonzero" fill="#ffffff" stroke="none" />
      <path d="M 674 1331.5  C 680.44 1331.5  685.5 1336.56  685.5 1343  C 685.5 1349.44  680.44 1354.5  674 1354.5  C 667.56 1354.5  662.5 1349.44  662.5 1343  C 662.5 1336.56  667.56 1331.5  674 1331.5  Z " stroke-width="1" stroke="#d9d9d9" fill="none" />
    </g>
  </defs>
  <g transform="matrix(1 0 0 1 -660 -1330 )">
    <use xlink:href="#widget2" filter="url(#filter1)" />
    <use xlink:href="#widget2" />
  </g>
</svg>