<?xml version="1.0" encoding="utf-8"?>
<svg version="1.1" xmlns:xlink="http://www.w3.org/1999/xlink" width="64px" height="64px" xmlns="http://www.w3.org/2000/svg">
  <g transform="matrix(1 0 0 1 -448 -872 )">
    <path d="M 480 872  C 497.92 872  512 886.08  512 904  C 512 921.92  497.92 936  480 936  C 462.08 936  448 921.92  448 904  C 448 886.08  462.08 872  480 872  Z " fill-rule="nonzero" fill="#e9e9e9" stroke="none" />
    <path d="M 480 872.5  C 497.64 872.5  511.5 886.36  511.5 904  C 511.5 921.64  497.64 935.5  480 935.5  C 462.36 935.5  448.5 921.64  448.5 904  C 448.5 886.36  462.36 872.5  480 872.5  Z " stroke-width="1" stroke="#ffffff" fill="none" />
  </g>
</svg>