<?xml version="1.0" encoding="utf-8"?>
<svg version="1.1" xmlns:xlink="http://www.w3.org/1999/xlink" width="8px" height="8px" xmlns="http://www.w3.org/2000/svg">
  <g transform="matrix(1 0 0 1 -564 -1097 )">
    <path d="M 568 1097  C 570.24 1097  572 1098.76  572 1101  C 572 1103.24  570.24 1105  568 1105  C 565.76 1105  564 1103.24  564 1101  C 564 1098.76  565.76 1097  568 1097  Z " fill-rule="nonzero" fill="#2fc25b" stroke="none" />
    <path d="M 568 1097.5  C 569.96 1097.5  571.5 1099.04  571.5 1101  C 571.5 1102.96  569.96 1104.5  568 1104.5  C 566.04 1104.5  564.5 1102.96  564.5 1101  C 564.5 1099.04  566.04 1097.5  568 1097.5  Z " stroke-width="1" stroke="#ffffff" fill="none" />
  </g>
</svg>