<?xml version="1.0" encoding="utf-8"?>
<svg version="1.1" xmlns:xlink="http://www.w3.org/1999/xlink" width="8px" height="8px" xmlns="http://www.w3.org/2000/svg">
  <g transform="matrix(1 0 0 1 -564 -1180 )">
    <path d="M 568 1180  C 570.24 1180  572 1181.76  572 1184  C 572 1186.24  570.24 1188  568 1188  C 565.76 1188  564 1186.24  564 1184  C 564 1181.76  565.76 1180  568 1180  Z " fill-rule="nonzero" fill="#2fc25b" stroke="none" />
    <path d="M 568 1180.5  C 569.96 1180.5  571.5 1182.04  571.5 1184  C 571.5 1185.96  569.96 1187.5  568 1187.5  C 566.04 1187.5  564.5 1185.96  564.5 1184  C 564.5 1182.04  566.04 1180.5  568 1180.5  Z " stroke-width="1" stroke="#ffffff" fill="none" />
  </g>
</svg>