<?xml version="1.0" encoding="utf-8"?>
<svg version="1.1" xmlns:xlink="http://www.w3.org/1999/xlink" width="28px" height="28px" xmlns="http://www.w3.org/2000/svg">
  <defs>
    <filter x="660px" y="1247px" width="28px" height="28px" filterUnits="userSpaceOnUse" id="filter3">
      <feOffset dx="0" dy="1" in="SourceAlpha" result="shadowOffsetInner" />
      <feGaussianBlur stdDeviation="1" in="shadowOffsetInner" result="shadowGaussian" />
      <feComposite in2="shadowGaussian" operator="atop" in="SourceAlpha" result="shadowComposite" />
      <feColorMatrix type="matrix" values="0 0 0 0 0  0 0 0 0 0  0 0 0 0 0  0 0 0 0.349019607843137 0  " in="shadowComposite" />
    </filter>
    <g id="widget4">
      <path d="M 674 1248  C 680.72 1248  686 1253.28  686 1260  C 686 1266.72  680.72 1272  674 1272  C 667.28 1272  662 1266.72  662 1260  C 662 1253.28  667.28 1248  674 1248  Z " fill-rule="nonzero" fill="#ffffff" stroke="none" />
      <path d="M 674 1248.5  C 680.44 1248.5  685.5 1253.56  685.5 1260  C 685.5 1266.44  680.44 1271.5  674 1271.5  C 667.56 1271.5  662.5 1266.44  662.5 1260  C 662.5 1253.56  667.56 1248.5  674 1248.5  Z " stroke-width="1" stroke="#d9d9d9" fill="none" />
    </g>
  </defs>
  <g transform="matrix(1 0 0 1 -660 -1247 )">
    <use xlink:href="#widget4" filter="url(#filter3)" />
    <use xlink:href="#widget4" />
  </g>
</svg>