<?xml version="1.0" encoding="utf-8"?>
<svg version="1.1" xmlns:xlink="http://www.w3.org/1999/xlink" width="64px" height="64px" xmlns="http://www.w3.org/2000/svg">
  <g transform="matrix(1 0 0 1 -683 -789 )">
    <path d="M 712.333511537483 789.613062600621  C 713.22026999089 789.53772771924  714.109897522075 789.5  715 789.5  C 732.39696961967 789.5  746.5 803.60303038033  746.5 821  C 746.5 838.39696961967  732.39696961967 852.5  715 852.5  C 698.852014491796 852.5  685.349015581785 840.296426827724  683.672190417079 824.289741636116  L 715.044318343823 821.498032011422  A 0.5 0.5 0 0 0 715.497470760719 820.949772097104 L 712.333511537502 789.613062600619  Z " fill-rule="nonzero" fill="#0096fa" stroke="none" />
    <path d="M 712.333511537483 789.613062600621  C 713.22026999089 789.53772771924  714.109897522075 789.5  715 789.5  C 732.39696961967 789.5  746.5 803.60303038033  746.5 821  C 746.5 838.39696961967  732.39696961967 852.5  715 852.5  C 698.852014491796 852.5  685.349015581785 840.296426827724  683.672190417079 824.289741636116  L 715.044318343823 821.498032011422  A 0.5 0.5 0 0 0 715.497470760719 820.949772097104 L 712.333511537502 789.613062600619  Z " stroke-width="1" stroke="#ffffff" fill="none" />
  </g>
</svg>