<?xml version="1.0" encoding="utf-8"?>
<svg version="1.1" xmlns:xlink="http://www.w3.org/1999/xlink" width="10px" height="10px" xmlns="http://www.w3.org/2000/svg">
  <g transform="matrix(1 0 0 1 -1171 -372 )">
    <path d="M 1176 373  C 1178.24 373  1180 374.76  1180 377  C 1180 379.24  1178.24 381  1176 381  C 1173.76 381  1172 379.24  1172 377  C 1172 374.76  1173.76 373  1176 373  Z " fill-rule="nonzero" fill="#ffffff" stroke="none" />
    <path d="M 1176 373  C 1178.24 373  1180 374.76  1180 377  C 1180 379.24  1178.24 381  1176 381  C 1173.76 381  1172 379.24  1172 377  C 1172 374.76  1173.76 373  1176 373  Z " stroke-width="2" stroke="#ffc500" fill="none" />
  </g>
</svg>