<?xml version="1.0" encoding="utf-8"?>
<svg version="1.1" xmlns:xlink="http://www.w3.org/1999/xlink" width="10px" height="10px" xmlns="http://www.w3.org/2000/svg">
  <g transform="matrix(1 0 0 1 -1171 -181 )">
    <path d="M 1176 182  C 1178.24 182  1180 183.76  1180 186  C 1180 188.24  1178.24 190  1176 190  C 1173.76 190  1172 188.24  1172 186  C 1172 183.76  1173.76 182  1176 182  Z " fill-rule="nonzero" fill="#ffffff" stroke="none" />
    <path d="M 1176 182  C 1178.24 182  1180 183.76  1180 186  C 1180 188.24  1178.24 190  1176 190  C 1173.76 190  1172 188.24  1172 186  C 1172 183.76  1173.76 182  1176 182  Z " stroke-width="2" stroke="#1890ff" fill="none" />
  </g>
</svg>