<?xml version="1.0" encoding="utf-8"?>
<svg version="1.1" xmlns:xlink="http://www.w3.org/1999/xlink" width="10px" height="10px" xmlns="http://www.w3.org/2000/svg">
  <g transform="matrix(1 0 0 1 -1171 -306 )">
    <path d="M 1176 307  C 1178.24 307  1180 308.76  1180 311  C 1180 313.24  1178.24 315  1176 315  C 1173.76 315  1172 313.24  1172 311  C 1172 308.76  1173.76 307  1176 307  Z " fill-rule="nonzero" fill="#ffffff" stroke="none" />
    <path d="M 1176 307  C 1178.24 307  1180 308.76  1180 311  C 1180 313.24  1178.24 315  1176 315  C 1173.76 315  1172 313.24  1172 311  C 1172 308.76  1173.76 307  1176 307  Z " stroke-width="2" stroke="#d9d9d9" fill="none" />
  </g>
</svg>