<?xml version="1.0" encoding="utf-8"?>
<svg version="1.1" xmlns:xlink="http://www.w3.org/1999/xlink" width="48px" height="48px" xmlns="http://www.w3.org/2000/svg">
  <g transform="matrix(1 0 0 1 -462 -4980 )">
    <path d="M 463 4982  A 1 1 0 0 1 464 4981 L 508 4981  A 1 1 0 0 1 509 4982 L 509 5026  A 1 1 0 0 1 508 5027 L 464 5027  A 1 1 0 0 1 463 5026 L 463 4982  Z " fill-rule="nonzero" fill="#f2f2f2" stroke="none" />
    <path d="M 462.5 4982  A 1.5 1.5 0 0 1 464 4980.5 L 508 4980.5  A 1.5 1.5 0 0 1 509.5 4982 L 509.5 5026  A 1.5 1.5 0 0 1 508 5027.5 L 464 5027.5  A 1.5 1.5 0 0 1 462.5 5026 L 462.5 4982  Z " stroke-width="1" stroke="#000000" fill="none" stroke-opacity="0.0470588235294118" />
  </g>
</svg>